# xmcd
#
# Track frame offsets:
# 150
# 14093
# 34270
# 47099
# 56702
# 77116
# 100561
# 115096
# 126044
# 144959
# 159128
#
# Disc length: 2218 seconds
#
# Revision: 1
# Processed by: cddbd v1.5.2PL0 Copyright (c) Steve Scherf et al.
# Submitted via: CedeCatalogueitor 2.6.0.6 http://personales.ya.com/cdcatalogueitor
#
DISCID=8608a80b
DTITLE=Flow - Lo Normal
DYEAR=1900
DGENRE=
TTITLE0=Date Un Salto
TTITLE1=¿Sí O No?
TTITLE2=Nos Separa Un Taxi
TTITLE3=Cras, Cras, Cras...
TTITLE4=Siempre Alicia
TTITLE5=Alma De Escarabajo
TTITLE6=Trío Lalalá
TTITLE7=Por L'hopital
TTITLE8=Se Va El Avión I
TTITLE9=Se Va El Avión II
TTITLE10=Se Va El Avión III
EXTD=
EXTT0=
EXTT1=
EXTT2=
EXTT3=
EXTT4=
EXTT5=
EXTT6=
EXTT7=
EXTT8=
EXTT9=
EXTT10=
PLAYORDER=
